<?xml version="1.0" standalone="no"?><!DOCTYPE svg PUBLIC "-//W3C//DTD SVG 1.1//EN" "http://www.w3.org/Graphics/SVG/1.1/DTD/svg11.dtd"><svg t="1754830067704" class="icon" viewBox="0 0 1024 1024" version="1.1" xmlns="http://www.w3.org/2000/svg" p-id="7044" width="256" height="256" xmlns:xlink="http://www.w3.org/1999/xlink"><path d="M864 992H160a96 96 0 0 1-96-96V128a96 96 0 0 1 96-96h704a96 96 0 0 1 96 96v768a96 96 0 0 1-96 96z m32-832a64 64 0 0 0-64-64H192a64 64 0 0 0-64 64v704a64 64 0 0 0 64 64h640a64 64 0 0 0 64-64V160zM544 640h256v64h-256v-64z m96-32v-64h64v64h-64z m-96-224h256v64h-256v-64z m0-128h256v64h-256V256z m-96 544l-96-82.272L256 800l-32-64 74.656-64L224 608l32-64 96 82.304L448 544l32 64-74.656 64L480 736z m-64-320h-64v-96H224v-64h96V224h64v96h96v64h-96v96z m320 320h-64v-64h64v64z" fill="#FF6600" p-id="7045"></path></svg>